<mxfile host="app.diagrams.net" modified="2024-03-21T13:31:46.243Z" agent="Mozilla/5.0 (Windows NT 10.0; Win64; x64) AppleWebKit/537.36 (KHTML, like Gecko) Chrome/122.0.0.0 Safari/537.36 Edg/122.0.0.0" etag="e7hEuLGikaNO9DEJFfZR" version="24.0.7" type="device">
  <diagram name="Page-1" id="UorUAcH0Da4fy6z-f7ty">
    <mxGraphModel dx="1042" dy="569" grid="1" gridSize="10" guides="1" tooltips="1" connect="1" arrows="1" fold="1" page="1" pageScale="1" pageWidth="850" pageHeight="1100" math="0" shadow="0">
      <root>
        <mxCell id="0" />
        <mxCell id="1" parent="0" />
        <mxCell id="cocYQrzc4hrwMAZdxBjY-9" value="Get Crop recommenadation&amp;nbsp;&lt;div&gt;and cure recommendation&lt;/div&gt;" style="edgeStyle=orthogonalEdgeStyle;rounded=0;orthogonalLoop=1;jettySize=auto;html=1;exitX=1;exitY=0;exitDx=0;exitDy=0;entryX=0;entryY=0.75;entryDx=0;entryDy=0;" edge="1" parent="1" source="cocYQrzc4hrwMAZdxBjY-2" target="cocYQrzc4hrwMAZdxBjY-4">
          <mxGeometry x="0.3184" y="-22" relative="1" as="geometry">
            <Array as="points">
              <mxPoint x="468" y="168" />
              <mxPoint x="550" y="168" />
            </Array>
            <mxPoint as="offset" />
          </mxGeometry>
        </mxCell>
        <mxCell id="cocYQrzc4hrwMAZdxBjY-11" value="Get product for&amp;nbsp;&lt;div&gt;sale information&lt;/div&gt;" style="edgeStyle=orthogonalEdgeStyle;rounded=0;orthogonalLoop=1;jettySize=auto;html=1;exitX=0;exitY=1;exitDx=0;exitDy=0;entryX=0.25;entryY=0;entryDx=0;entryDy=0;" edge="1" parent="1" source="cocYQrzc4hrwMAZdxBjY-2" target="cocYQrzc4hrwMAZdxBjY-5">
          <mxGeometry x="-0.2176" y="-45" relative="1" as="geometry">
            <Array as="points">
              <mxPoint x="415" y="278" />
            </Array>
            <mxPoint as="offset" />
          </mxGeometry>
        </mxCell>
        <mxCell id="cocYQrzc4hrwMAZdxBjY-18" value="Get Order Information" style="edgeStyle=orthogonalEdgeStyle;rounded=0;orthogonalLoop=1;jettySize=auto;html=1;entryX=0.75;entryY=1;entryDx=0;entryDy=0;" edge="1" parent="1" source="cocYQrzc4hrwMAZdxBjY-2" target="cocYQrzc4hrwMAZdxBjY-3">
          <mxGeometry x="-0.1538" y="-10" relative="1" as="geometry">
            <mxPoint as="offset" />
          </mxGeometry>
        </mxCell>
        <mxCell id="cocYQrzc4hrwMAZdxBjY-20" value="Manage Users" style="edgeStyle=orthogonalEdgeStyle;rounded=0;orthogonalLoop=1;jettySize=auto;html=1;exitX=0.5;exitY=1;exitDx=0;exitDy=0;entryX=0.065;entryY=0.77;entryDx=0;entryDy=0;entryPerimeter=0;" edge="1" parent="1" source="cocYQrzc4hrwMAZdxBjY-3" target="cocYQrzc4hrwMAZdxBjY-2">
          <mxGeometry x="0.1194" y="-7" relative="1" as="geometry">
            <mxPoint x="390" y="278" as="targetPoint" />
            <Array as="points">
              <mxPoint x="210" y="270" />
              <mxPoint x="380" y="270" />
              <mxPoint x="380" y="272" />
            </Array>
            <mxPoint as="offset" />
          </mxGeometry>
        </mxCell>
        <mxCell id="cocYQrzc4hrwMAZdxBjY-2" value="0.0&lt;div&gt;Smart Kishan App&lt;/div&gt;" style="shape=ellipse;html=1;dashed=0;whiteSpace=wrap;aspect=fixed;perimeter=ellipsePerimeter;" vertex="1" parent="1">
          <mxGeometry x="400" y="210" width="80" height="80" as="geometry" />
        </mxCell>
        <mxCell id="cocYQrzc4hrwMAZdxBjY-15" value="Create banner, product, seed,&amp;nbsp;&lt;div&gt;new admin through CMS&lt;/div&gt;" style="edgeStyle=orthogonalEdgeStyle;rounded=0;orthogonalLoop=1;jettySize=auto;html=1;entryX=0.265;entryY=0.05;entryDx=0;entryDy=0;exitX=1;exitY=0.25;exitDx=0;exitDy=0;entryPerimeter=0;" edge="1" parent="1" source="cocYQrzc4hrwMAZdxBjY-3" target="cocYQrzc4hrwMAZdxBjY-2">
          <mxGeometry x="-0.2675" y="15" relative="1" as="geometry">
            <mxPoint as="offset" />
          </mxGeometry>
        </mxCell>
        <mxCell id="cocYQrzc4hrwMAZdxBjY-3" value="ADMIN" style="html=1;dashed=0;whiteSpace=wrap;" vertex="1" parent="1">
          <mxGeometry x="160" y="130" width="100" height="50" as="geometry" />
        </mxCell>
        <mxCell id="cocYQrzc4hrwMAZdxBjY-6" value="Provide Soil Data" style="edgeStyle=orthogonalEdgeStyle;rounded=0;orthogonalLoop=1;jettySize=auto;html=1;entryX=0.5;entryY=0;entryDx=0;entryDy=0;exitX=0;exitY=0.25;exitDx=0;exitDy=0;" edge="1" parent="1" source="cocYQrzc4hrwMAZdxBjY-4" target="cocYQrzc4hrwMAZdxBjY-2">
          <mxGeometry x="-0.1919" y="-12" relative="1" as="geometry">
            <mxPoint as="offset" />
          </mxGeometry>
        </mxCell>
        <mxCell id="cocYQrzc4hrwMAZdxBjY-10" value="Add product to sell through CMS" style="edgeStyle=orthogonalEdgeStyle;rounded=0;orthogonalLoop=1;jettySize=auto;html=1;entryX=1;entryY=0.5;entryDx=0;entryDy=0;" edge="1" parent="1" source="cocYQrzc4hrwMAZdxBjY-4" target="cocYQrzc4hrwMAZdxBjY-2">
          <mxGeometry x="0.2308" y="10" relative="1" as="geometry">
            <Array as="points">
              <mxPoint x="670" y="250" />
            </Array>
            <mxPoint as="offset" />
          </mxGeometry>
        </mxCell>
        <mxCell id="cocYQrzc4hrwMAZdxBjY-4" value="FARMER" style="html=1;dashed=0;whiteSpace=wrap;" vertex="1" parent="1">
          <mxGeometry x="620" y="130" width="100" height="50" as="geometry" />
        </mxCell>
        <mxCell id="cocYQrzc4hrwMAZdxBjY-14" value="Place&amp;nbsp;&lt;div&gt;order&lt;/div&gt;" style="edgeStyle=orthogonalEdgeStyle;rounded=0;orthogonalLoop=1;jettySize=auto;html=1;exitX=0.75;exitY=0;exitDx=0;exitDy=0;entryX=1;entryY=1;entryDx=0;entryDy=0;" edge="1" parent="1" source="cocYQrzc4hrwMAZdxBjY-5" target="cocYQrzc4hrwMAZdxBjY-2">
          <mxGeometry x="0.2746" y="-22" relative="1" as="geometry">
            <Array as="points">
              <mxPoint x="468" y="390" />
            </Array>
            <mxPoint as="offset" />
          </mxGeometry>
        </mxCell>
        <mxCell id="cocYQrzc4hrwMAZdxBjY-5" value="CUSTOMER" style="html=1;dashed=0;whiteSpace=wrap;" vertex="1" parent="1">
          <mxGeometry x="390" y="390" width="100" height="50" as="geometry" />
        </mxCell>
        <mxCell id="cocYQrzc4hrwMAZdxBjY-17" value="Manage product order" style="edgeStyle=orthogonalEdgeStyle;rounded=0;orthogonalLoop=1;jettySize=auto;html=1;exitX=0.25;exitY=1;exitDx=0;exitDy=0;" edge="1" parent="1" source="cocYQrzc4hrwMAZdxBjY-4" target="cocYQrzc4hrwMAZdxBjY-2">
          <mxGeometry x="0.0438" y="-10" relative="1" as="geometry">
            <mxPoint x="500" y="230" as="targetPoint" />
            <Array as="points">
              <mxPoint x="645" y="230" />
            </Array>
            <mxPoint as="offset" />
          </mxGeometry>
        </mxCell>
        <mxCell id="cocYQrzc4hrwMAZdxBjY-19" value="Manage Orders" style="edgeStyle=orthogonalEdgeStyle;rounded=0;orthogonalLoop=1;jettySize=auto;html=1;exitX=1;exitY=0.75;exitDx=0;exitDy=0;entryX=0.015;entryY=0.28;entryDx=0;entryDy=0;entryPerimeter=0;" edge="1" parent="1" source="cocYQrzc4hrwMAZdxBjY-3" target="cocYQrzc4hrwMAZdxBjY-2">
          <mxGeometry x="-0.3207" y="-13" relative="1" as="geometry">
            <mxPoint as="offset" />
          </mxGeometry>
        </mxCell>
      </root>
    </mxGraphModel>
  </diagram>
</mxfile>
